<svg xmlns="http://www.w3.org/2000/svg" version="1.1" xmlns:xlink="http://www.w3.org/1999/xlink" viewBox="0 0 14.107680682822307 3.7264317344654216"><g transform="matrix(0.7148881902175359,0,0,0.7148881902175359,4.114819715567082,1.4814655736565465)"><g transform="matrix(1,0,0,1,0,0)" clip-path="url(#SvgjsClipPath65040)"><g clip-path="url(#SvgjsClipPath65038367ff00e-56ea-49bd-a94f-930da209a8bf)"><path d=" M -2.0664271507983822 1.5600855966801723 C -2.0015733287665567 1.492143497408736 -1.9552491701723957 1.5600855966801723 -1.7378962180485928 1.4338368231248855 C -1.728446089695384 1.4284014551831707 -1.6267182374226066 1.3295148179708354 -1.6684717457021436 1.3288353969781208 C -1.821465000152459 1.3258706508280944 -2.1378898861229745 1.305549786591456 -2.0405473875304443 1.236187079789799 C -2.1675991131680297 1.2410047922835914 -2.0837832688849947 1.1810922138351434 -2.1894641160244737 1.1994983461832234 C -2.2357882746186344 1.2075278670062113 -2.1065129893685293 1.0772025674946384 -2.1352957332417013 0.9057414151514509 C -2.20694376520067 0.478817969547664 -1.9716788050871248 0.39642273279484985 -1.9716170395423325 0.3963609672500573 C -1.9483908778602055 0.38530810275305694 -1.9237346809307225 0.3775536664506143 -1.898363103418766 0.3733224190425618 C -1.8317798461327588 0.36214285543517066 -1.7254195780005654 0.37752247608843226 -1.58916478618894 0.4432410157473483 C -1.599788459893201 0.4238466346825931 -1.6092385882464098 0.40476108134179867 -1.617391640158982 0.386169652359342 C -1.626903534056983 0.3640575873237295 -1.774214358386415 0.32631883945568607 -1.7878645437854943 0.3077891760180218 C -1.9466019939014858 0.08969503735671203 -2.0616712038493814 -0.10603997408981591 -2.1223867343801284 -0.15891128043195152 C -2.1831022649108753 -0.21178258677408723 -2.051171061234705 -0.18874403856659117 -1.9902084685247894 -0.124260809803519 L -1.9233781490596131 -0.054033385374771314 C -1.9233781490596131 -0.054033385374771314 -1.699910408001381 -0.15866421825278265 -1.685580801609587 -0.1507582285193793 C -1.6712511952177933 -0.1428522387859758 -1.5262874615904658 -0.02006233573905325 -1.4524776355637692 0.17962567057417655 C -1.4392598089782354 0.21532615546407663 -1.618812247689203 0.21236140931405023 -1.6068914975443058 0.24460302369558629 C -1.5949707473994081 0.27684463807712234 -1.5355522933092978 0.27857407333130435 -1.5227050599925172 0.31371866831807427 C -1.4732926241587454 0.44855285259947886 -1.4177036338457527 0.4790032661820407 -1.317149326924027 0.5742457362516353 C -1.261560336611034 0.6161845411655493 -1.2279598802440694 0.659976312423229 -1.190900553368741 0.7013592274340128 C -1.163044292667452 0.7255713209925612 -1.1364851084067997 0.7487951658344336 -1.1127671392065894 0.7710307619596306 C -1.0723107073676887 0.8088312753724658 -1.204180145499067 0.625758200608342 -1.1106053451388618 0.437496820081672 C -1.0364866913882043 0.2892595125803571 -1.072372472912481 0.21446143783698524 -1.1885534626666365 0.2122378782244655 C -1.2441424529796299 0.21118786396299793 -1.3535909983514338 0.07573602423367132 -1.3461173674315758 -0.007523930146234092 C -1.3420408414752898 -0.052736308934134946 -1.3173963891031963 -0.07626898149996875 -1.3375937222502503 -0.1519317738704316 C -1.3611263948160843 -0.23988590965454532 -1.4235713606010132 -0.26774217035583403 -1.4134418112550895 -0.3005396746404999 C -1.3248082544782616 -0.5902818452607781 -0.9069643439589301 -0.6968274100273482 -0.706596916652986 -0.44334161420009954 C -0.5004852936813664 -0.18219689081861623 -0.7797273216869682 -0.11054885885964738 -0.49832349961363875 0.14225751597488667 C -0.3852307870990934 0.24386183715807952 -0.4596582685737125 0.5916018543382475 -0.45576703925180295 0.6584321738034236 C -0.45101109230280234 0.739962692929147 -0.49554405009798863 0.7206918429539757 -0.5607684653985674 0.6522556193242022 C -0.5459447346484361 0.7410744727354066 -0.47491435813738914 1.0846144328697043 -0.4742967026894669 1.2586079725493728 C -0.47367904724154464 1.4121571169028182 -0.642669577793044 1.651004478614312 -0.8819492983180834 1.651004478614312 C -1.2377806018660316 1.6511897752486884 -1.5600114490470147 0.8711527100678105 -1.7550670395008285 0.7463245440427453 C -1.6857660982439637 0.7127858532205729 -1.4776779778389928 0.9977720768918505 -1.4357391729250792 1.0836261841530288 C -1.3629175956150583 1.2324193815574738 -1.4272772932885456 1.3314295498593938 -1.4718102510837325 1.3430414722803303 C -1.461804232827394 1.4175924848445334 -1.4446951769199505 1.451316472301082 -1.4277714176468834 1.4778138910169423 C -1.400841640117478 1.5201850547444016 -1.3840414119339957 1.6168481323442174 -1.4783573988317071 1.6437779098736232 C -1.5145520080799448 1.654092755853923 -1.5838529493368096 1.627348274958894 -1.6828013520939373 1.6413072880819346 C -1.925910536396094 1.6758342276207823 -2.140484039004247 1.6379101831183625 -2.0664271507983822 1.5600855966801723 Z" fill="#1192dc" transform="matrix(1,0,0,1,0,0)" fill-rule="nonzero"></path></g><g clip-path="url(#SvgjsClipPath65038367ff00e-56ea-49bd-a94f-930da209a8bf)"><path d=" M -0.7417415116397561 1.4756520969492146 C -0.5022147289355479 1.505176027359893 -0.3625010666155588 1.4927611528566582 -0.40882522520972 1.3760242731993728 C -0.48881160571563753 1.174606831631961 -0.5053030061751593 0.9695452229218084 -0.5053030061751593 0.9695452229218084" fill="#1192dc" transform="matrix(1,0,0,1,0,0)" fill-rule="nonzero"></path></g></g><g><path d=" M 0.18 1.068 L 0.5565 1.068 Q 0.657 1.068 0.726 1.04175 Q 0.795 1.0155 0.837 0.9735 Q 0.879 0.9315 0.89775 0.8782500000000001 Q 0.9165 0.8250000000000001 0.9165 0.7710000000000001 Q 0.9165 0.6855 0.87975 0.6345000000000001 Q 0.843 0.5835000000000001 0.792 0.5565 Q 0.741 0.5295000000000001 0.687 0.5205000000000001 Q 0.633 0.5115000000000001 0.6 0.51 L 0.6 0.504 Q 0.6525 0.504 0.6990000000000001 0.48375 Q 0.7455 0.4635 0.78075 0.43125 Q 0.8160000000000001 0.399 0.837 0.35625000000000007 Q 0.858 0.3135 0.858 0.26550000000000007 Q 0.858 0.22350000000000003 0.84 0.18000000000000005 Q 0.8220000000000001 0.13650000000000007 0.78525 0.10050000000000003 Q 0.7485 0.0645 0.69075 0.04125000000000001 Q 0.633 0.018000000000000016 0.555 0.018000000000000016 L 0.18 0.018000000000000016 L 0.18 1.068 M 0.3165 1.002 L 0.3165 0.543 L 0.4815 0.543 Q 0.555 0.543 0.609 0.5625 Q 0.663 0.5820000000000001 0.69825 0.615 Q 0.7335 0.6480000000000001 0.75075 0.6915 Q 0.768 0.7350000000000001 0.768 0.783 Q 0.768 0.8355 0.74925 0.8760000000000001 Q 0.7305 0.9165000000000001 0.6990000000000001 0.9450000000000001 Q 0.6675 0.9735 0.62475 0.98775 Q 0.582 1.002 0.534 1.002 L 0.3165 1.002 M 0.3165 0.4770000000000001 L 0.3165 0.08400000000000007 L 0.4995 0.08400000000000007 Q 0.558 0.08400000000000007 0.5992500000000001 0.10050000000000003 Q 0.6405 0.11699999999999999 0.6667500000000001 0.14400000000000002 Q 0.6930000000000001 0.17100000000000004 0.705 0.20550000000000002 Q 0.717 0.24 0.717 0.2745000000000001 Q 0.717 0.31800000000000006 0.69975 0.35550000000000004 Q 0.6825 0.393 0.65175 0.42000000000000004 Q 0.621 0.44700000000000006 0.58125 0.4620000000000001 Q 0.5415 0.4770000000000001 0.4965 0.4770000000000001 L 0.3165 0.4770000000000001 M 1.06351611328125 0.543 Q 1.06351611328125 0.627 1.09576611328125 0.7222500000000001 Q 1.12801611328125 0.8175000000000001 1.19701611328125 0.8985000000000001 Q 1.26601611328125 0.9795 1.37251611328125 1.03275 Q 1.47901611328125 1.086 1.6275161132812501 1.086 Q 1.72801611328125 1.086 1.80976611328125 1.06125 Q 1.89151611328125 1.0365 1.9567661132812502 0.9945 Q 2.02201611328125 0.9525 2.07001611328125 0.89775 Q 2.11801611328125 0.8430000000000001 2.14876611328125 0.7822500000000001 Q 2.17951611328125 0.7215 2.19526611328125 0.66 Q 2.21101611328125 0.5985 2.21101611328125 0.543 Q 2.21101611328125 0.4590000000000001 2.17651611328125 0.36375 Q 2.14201611328125 0.26850000000000007 2.07001611328125 0.1875 Q 1.99801611328125 0.10650000000000004 1.88776611328125 0.05325000000000002 Q 1.77751611328125 0 1.6275161132812501 0 Q 1.47901611328125 0 1.37251611328125 0.05249999999999999 Q 1.26601611328125 0.1050000000000001 1.19701611328125 0.18525000000000003 Q 1.12801611328125 0.26550000000000007 1.09576611328125 0.36150000000000004 Q 1.06351611328125 0.4575 1.06351611328125 0.543 M 1.21051611328125 0.543 Q 1.21051611328125 0.43800000000000006 1.24276611328125 0.35025000000000006 Q 1.27501611328125 0.26250000000000007 1.33126611328125 0.1995 Q 1.38751611328125 0.13650000000000007 1.4640161132812501 0.10125000000000006 Q 1.54051611328125 0.06600000000000006 1.63051611328125 0.06600000000000006 Q 1.71901611328125 0.06600000000000006 1.79776611328125 0.10125000000000006 Q 1.87651611328125 0.13650000000000007 1.93576611328125 0.1995 Q 1.9950161132812498 0.26250000000000007 2.02951611328125 0.35025000000000006 Q 2.0640161132812502 0.43800000000000006 2.0640161132812502 0.543 Q 2.0640161132812502 0.6480000000000001 2.02951611328125 0.7357500000000001 Q 1.9950161132812498 0.8235000000000001 1.93576611328125 0.8865000000000001 Q 1.87651611328125 0.9495 1.79776611328125 0.98475 Q 1.71901611328125 1.02 1.63051611328125 1.02 Q 1.54051611328125 1.02 1.4640161132812501 0.98475 Q 1.38751611328125 0.9495 1.33126611328125 0.8865000000000001 Q 1.27501611328125 0.8235000000000001 1.24276611328125 0.7357500000000001 Q 1.21051611328125 0.6480000000000001 1.21051611328125 0.543 M 2.35800146484375 0.543 Q 2.35800146484375 0.627 2.39025146484375 0.7222500000000001 Q 2.4225014648437497 0.8175000000000001 2.4915014648437497 0.8985000000000001 Q 2.5605014648437496 0.9795 2.6670014648437497 1.03275 Q 2.7735014648437497 1.086 2.92200146484375 1.086 Q 3.02250146484375 1.086 3.10425146484375 1.06125 Q 3.18600146484375 1.0365 3.25125146484375 0.9945 Q 3.31650146484375 0.9525 3.36450146484375 0.89775 Q 3.41250146484375 0.8430000000000001 3.4432514648437498 0.7822500000000001 Q 3.4740014648437496 0.7215 3.4897514648437498 0.66 Q 3.50550146484375 0.5985 3.50550146484375 0.543 Q 3.50550146484375 0.4590000000000001 3.4710014648437495 0.36375 Q 3.43650146484375 0.26850000000000007 3.36450146484375 0.1875 Q 3.29250146484375 0.10650000000000004 3.1822514648437497 0.05325000000000002 Q 3.07200146484375 0 2.92200146484375 0 Q 2.7735014648437497 0 2.6670014648437497 0.05249999999999999 Q 2.5605014648437496 0.1050000000000001 2.4915014648437497 0.18525000000000003 Q 2.4225014648437497 0.26550000000000007 2.39025146484375 0.36150000000000004 Q 2.35800146484375 0.4575 2.35800146484375 0.543 M 2.5050014648437497 0.543 Q 2.5050014648437497 0.43800000000000006 2.5372514648437496 0.35025000000000006 Q 2.56950146484375 0.26250000000000007 2.62575146484375 0.1995 Q 2.68200146484375 0.13650000000000007 2.75850146484375 0.10125000000000006 Q 2.83500146484375 0.06600000000000006 2.9250014648437497 0.06600000000000006 Q 3.01350146484375 0.06600000000000006 3.09225146484375 0.10125000000000006 Q 3.1710014648437497 0.13650000000000007 3.2302514648437497 0.1995 Q 3.2895014648437497 0.26250000000000007 3.3240014648437497 0.35025000000000006 Q 3.3585014648437497 0.43800000000000006 3.3585014648437497 0.543 Q 3.3585014648437497 0.6480000000000001 3.3240014648437497 0.7357500000000001 Q 3.2895014648437497 0.8235000000000001 3.2302514648437497 0.8865000000000001 Q 3.1710014648437497 0.9495 3.09225146484375 0.98475 Q 3.01350146484375 1.02 2.9250014648437497 1.02 Q 2.83500146484375 1.02 2.75850146484375 0.98475 Q 2.68200146484375 0.9495 2.62575146484375 0.8865000000000001 Q 2.56950146484375 0.8235000000000001 2.5372514648437496 0.7357500000000001 Q 2.5050014648437497 0.6480000000000001 2.5050014648437497 0.543 M 3.75748681640625 1.068 L 3.8939868164062497 1.068 L 3.8939868164062497 0.6990000000000001 L 4.063486816406249 0.5175000000000001 L 4.4624868164062494 1.068 L 4.61848681640625 1.068 L 4.15048681640625 0.4245000000000001 L 4.531486816406249 0.018000000000000016 L 4.456486816406249 0.018000000000000016 L 3.8939868164062497 0.609 L 3.8939868164062497 0.018000000000000016 L 3.75748681640625 0.018000000000000016 L 3.75748681640625 1.068 M 5.7239853515625 0.8745 Q 5.570985351562499 1.0185 5.3609853515624994 1.0185 Q 5.2439853515624995 1.0185 5.1539853515625 0.9780000000000001 Q 5.0639853515625 0.9375 5.003985351562499 0.8700000000000001 Q 4.9439853515625 0.8025 4.913235351562499 0.7140000000000001 Q 4.8824853515625 0.6255000000000001 4.8824853515625 0.5295000000000001 Q 4.8824853515625 0.4275000000000001 4.914735351562499 0.34275 Q 4.9469853515625 0.258 5.005485351562499 0.1965 Q 5.0639853515625 0.135 5.144235351562499 0.10050000000000003 Q 5.2244853515625 0.06600000000000006 5.3189853515625 0.06600000000000006 Q 5.383485351562499 0.06600000000000006 5.4367353515625 0.08100000000000007 Q 5.4899853515625 0.09600000000000009 5.5312353515625 0.12 Q 5.5724853515624995 0.14400000000000002 5.5987353515625 0.17475000000000007 Q 5.6249853515625 0.20550000000000002 5.635485351562499 0.237 L 5.7464853515625 0.237 Q 5.7239853515625 0.18600000000000005 5.688735351562499 0.14250000000000007 Q 5.6534853515625 0.09900000000000009 5.6009853515625 0.06750000000000012 Q 5.5484853515624994 0.03600000000000003 5.477985351562499 0.018000000000000016 Q 5.407485351562499 0 5.3174853515625 0 Q 5.1869853515625 0 5.0797353515624994 0.03750000000000009 Q 4.9724853515625 0.07500000000000007 4.8959853515625 0.14475000000000005 Q 4.819485351562499 0.21450000000000002 4.7774853515624995 0.3127500000000001 Q 4.7354853515625 0.41100000000000003 4.7354853515625 0.5325000000000001 Q 4.7354853515625 0.6375000000000001 4.769235351562499 0.7372500000000001 Q 4.8029853515625 0.8370000000000001 4.8734853515625 0.91425 Q 4.9439853515625 0.9915 5.053485351562499 1.03875 Q 5.1629853515625 1.086 5.3144853515624995 1.086 Q 5.4104853515624995 1.086 5.4862353515625 1.068 Q 5.5619853515625 1.05 5.618235351562499 1.0237500000000002 Q 5.6744853515625 0.9975 5.711985351562499 0.9675 Q 5.7494853515625 0.9375 5.7689853515625 0.915 L 5.7239853515625 0.8745 M 6.035943603515625 0.018000000000000016 L 6.035943603515625 1.068 L 6.1724436035156245 1.068 L 6.1724436035156245 0.018000000000000016 L 6.035943603515625 0.018000000000000016 M 6.589459716796874 0.018000000000000016 L 6.589459716796874 1.068 L 6.725959716796874 1.068 L 6.725959716796874 0.6045 L 6.791959716796875 0.6045 Q 6.833959716796874 0.6045 6.861709716796875 0.6120000000000001 Q 6.889459716796875 0.6195 6.911959716796875 0.6375000000000001 Q 6.934459716796875 0.6555 6.9539597167968745 0.684 Q 6.973459716796874 0.7125000000000001 7.0004597167968745 0.7545000000000001 L 7.118959716796875 0.93 Q 7.1414597167968745 0.9645 7.1632097167968745 0.9930000000000001 Q 7.184959716796874 1.0215 7.2104597167968745 1.04175 Q 7.2359597167968746 1.062 7.268209716796874 1.074 Q 7.300459716796874 1.086 7.345459716796874 1.086 Q 7.378459716796875 1.086 7.3994597167968745 1.083 Q 7.420459716796874 1.08 7.441459716796874 1.068 L 7.441459716796874 1.0125 Q 7.433959716796874 1.014 7.426459716796875 1.01475 Q 7.418959716796874 1.0155 7.411459716796874 1.0155 Q 7.379959716796875 1.0155 7.355959716796875 1.0065 Q 7.331959716796875 0.9975 7.310959716796875 0.9802500000000001 Q 7.289959716796874 0.9630000000000001 7.270459716796874 0.93825 Q 7.250959716796874 0.9135000000000001 7.229959716796874 0.8820000000000001 Q 7.166959716796875 0.7905 7.132459716796874 0.7357500000000001 Q 7.097959716796875 0.681 7.077709716796875 0.651 Q 7.057459716796874 0.621 7.044709716796874 0.6075 Q 7.031959716796875 0.5940000000000001 7.013959716796874 0.5850000000000001 L 6.9989597167968745 0.5775000000000001 L 6.9989597167968745 0.5715000000000001 Q 7.0709597167968745 0.5670000000000001 7.122709716796875 0.54 Q 7.174459716796874 0.513 7.207459716796874 0.47250000000000003 Q 7.240459716796875 0.43200000000000005 7.255459716796874 0.38475000000000004 Q 7.270459716796874 0.3375 7.270459716796874 0.2925000000000001 Q 7.270459716796874 0.252 7.254709716796874 0.20400000000000007 Q 7.238959716796875 0.15600000000000003 7.200709716796874 0.11475000000000002 Q 7.162459716796874 0.07350000000000001 7.096459716796875 0.04574999999999996 Q 7.030459716796875 0.018000000000000016 6.9299597167968745 0.018000000000000016 L 6.589459716796874 0.018000000000000016 M 6.725959716796874 0.08400000000000007 L 6.877459716796874 0.08400000000000007 Q 6.934459716796875 0.08400000000000007 6.980209716796875 0.10050000000000003 Q 7.025959716796875 0.11699999999999999 7.058959716796874 0.14625 Q 7.091959716796874 0.1755 7.109209716796874 0.21600000000000008 Q 7.126459716796874 0.25650000000000006 7.126459716796874 0.3045 Q 7.126459716796874 0.3450000000000001 7.110709716796874 0.3862500000000001 Q 7.0949597167968745 0.4275000000000001 7.063459716796874 0.46125000000000005 Q 7.031959716796875 0.495 6.986209716796874 0.516 Q 6.940459716796874 0.537 6.880459716796874 0.537 L 6.725959716796874 0.537 L 6.725959716796874 0.08400000000000007 M 8.546986083984374 0.8745 Q 8.393986083984375 1.0185 8.183986083984374 1.0185 Q 8.066986083984375 1.0185 7.976986083984374 0.9780000000000001 Q 7.886986083984374 0.9375 7.826986083984374 0.8700000000000001 Q 7.766986083984374 0.8025 7.736236083984374 0.7140000000000001 Q 7.705486083984375 0.6255000000000001 7.705486083984375 0.5295000000000001 Q 7.705486083984375 0.4275000000000001 7.737736083984374 0.34275 Q 7.769986083984374 0.258 7.828486083984374 0.1965 Q 7.886986083984374 0.135 7.967236083984374 0.10050000000000003 Q 8.047486083984374 0.06600000000000006 8.141986083984374 0.06600000000000006 Q 8.206486083984375 0.06600000000000006 8.259736083984373 0.08100000000000007 Q 8.312986083984374 0.09600000000000009 8.354236083984373 0.12 Q 8.395486083984375 0.14400000000000002 8.421736083984374 0.17475000000000007 Q 8.447986083984373 0.20550000000000002 8.458486083984374 0.237 L 8.569486083984375 0.237 Q 8.546986083984374 0.18600000000000005 8.511736083984374 0.14250000000000007 Q 8.476486083984375 0.09900000000000009 8.423986083984374 0.06750000000000012 Q 8.371486083984374 0.03600000000000003 8.300986083984375 0.018000000000000016 Q 8.230486083984374 0 8.140486083984374 0 Q 8.009986083984375 0 7.902736083984374 0.03750000000000009 Q 7.7954860839843745 0.07500000000000007 7.718986083984374 0.14475000000000005 Q 7.642486083984374 0.21450000000000002 7.600486083984374 0.3127500000000001 Q 7.558486083984374 0.41100000000000003 7.558486083984374 0.5325000000000001 Q 7.558486083984374 0.6375000000000001 7.592236083984374 0.7372500000000001 Q 7.625986083984374 0.8370000000000001 7.696486083984374 0.91425 Q 7.766986083984374 0.9915 7.876486083984374 1.03875 Q 7.985986083984375 1.086 8.137486083984374 1.086 Q 8.233486083984374 1.086 8.309236083984374 1.068 Q 8.384986083984375 1.05 8.441236083984375 1.0237500000000002 Q 8.497486083984374 0.9975 8.534986083984375 0.9675 Q 8.572486083984375 0.9375 8.591986083984374 0.915 L 8.546986083984374 0.8745 M 8.798944335937499 1.068 L 8.798944335937499 0.018000000000000016 L 8.935444335937499 0.018000000000000016 L 8.935444335937499 0.9855 L 9.4769443359375 0.9855 L 9.4769443359375 1.068 L 8.798944335937499 1.068 M 9.698928955078124 0.018000000000000016 L 9.698928955078124 1.068 L 10.376928955078125 1.068 L 10.376928955078125 0.9855 L 9.835428955078124 0.9855 L 9.835428955078124 0.546 L 10.300428955078123 0.546 L 10.300428955078123 0.4770000000000001 L 9.835428955078124 0.4770000000000001 L 9.835428955078124 0.10050000000000003 L 10.376928955078125 0.10050000000000003 L 10.376928955078125 0.018000000000000016 L 9.698928955078124 0.018000000000000016" fill="#ffffff" fill-rule="nonzero"></path></g><g></g></g><defs><clipPath id="SvgjsClipPath65040"><path d=" M -2.1995910738295765 -0.5861278498457221 h 1.7995910738295764 v 2.2402556996914442 h -1.7995910738295764 Z"></path></clipPath><clipPath id="SvgjsClipPath65038367ff00e-56ea-49bd-a94f-930da209a8bf"><path d=" M -2.1995910738295765 -0.5861278498457221 L -0.40000000000000013 -0.5861278498457221 L -0.40000000000000013 1.6541278498457221 L -2.1995910738295765 1.6541278498457221 Z"></path></clipPath></defs></svg>